<svg width="20" height="20" viewBox="0 0 20 20" fill="none" xmlns="http://www.w3.org/2000/svg">
<path d="M4.1748 9.99997C4.1748 9.76791 4.26699 9.54535 4.43109 9.38125C4.59518 9.21716 4.81774 9.12497 5.0498 9.12497H9.12497V5.0498C9.12497 4.81774 9.21716 4.59518 9.38125 4.43109C9.54535 4.26699 9.76791 4.1748 9.99997 4.1748C10.232 4.1748 10.4546 4.26699 10.6187 4.43109C10.7828 4.59518 10.875 4.81774 10.875 5.0498V9.12497H14.9501C15.1822 9.12497 15.4048 9.21716 15.5689 9.38125C15.733 9.54535 15.8251 9.76791 15.8251 9.99997C15.8251 10.232 15.733 10.4546 15.5689 10.6187C15.4048 10.7828 15.1822 10.875 14.9501 10.875H10.875V14.9501C10.875 15.1822 10.7828 15.4048 10.6187 15.5689C10.4546 15.733 10.232 15.8251 9.99997 15.8251C9.76791 15.8251 9.54535 15.733 9.38125 15.5689C9.21716 15.4048 9.12497 15.1822 9.12497 14.9501V10.875H5.0498C4.81774 10.875 4.59518 10.7828 4.43109 10.6187C4.26699 10.4546 4.1748 10.232 4.1748 9.99997Z" fill="black"/>
<path fill-rule="evenodd" clip-rule="evenodd" d="M4.53648 0.397141C8.16769 -0.00542713 11.8323 -0.00542713 15.4635 0.397141C17.595 0.635141 19.3158 2.31397 19.5655 4.45714C19.9971 8.14031 19.9971 11.8608 19.5655 15.544C19.3146 17.6871 17.5938 19.3648 15.4635 19.604C11.8323 20.0065 8.16769 20.0065 4.53648 19.604C2.40498 19.3648 0.684149 17.6871 0.434482 15.544C0.00474935 11.8609 0.00474935 8.14026 0.434482 4.45714C0.684149 2.31397 2.40615 0.635141 4.53648 0.397141ZM15.2698 2.13547C11.7673 1.74724 8.23265 1.74724 4.73015 2.13547C4.08177 2.20741 3.47657 2.49583 3.01232 2.95414C2.54808 3.41246 2.25191 4.0139 2.17165 4.66131C1.7567 8.2091 1.7567 11.7932 2.17165 15.341C2.25215 15.9882 2.54843 16.5893 3.01265 17.0474C3.47688 17.5055 4.08194 17.7938 4.73015 17.8656C8.20331 18.253 11.7966 18.253 15.2698 17.8656C15.9178 17.7935 16.5226 17.5052 16.9866 17.0471C17.4506 16.589 17.7467 15.988 17.8271 15.341C18.2421 11.7932 18.2421 8.2091 17.8271 4.66131C17.7465 4.0145 17.4502 3.41373 16.9863 2.9559C16.5223 2.49807 15.9176 2.20988 15.2698 2.13781" fill="black"/>
</svg>
