<svg width="24" height="25" viewBox="0 0 24 25" fill="none" xmlns="http://www.w3.org/2000/svg">
<path fill-rule="evenodd" clip-rule="evenodd" d="M19.5 11.4587H5.867C6.773 9.98058 9.194 8.17121 11.024 7.141C11.511 6.86808 11.691 6.23579 11.43 5.73058C11.167 5.22538 10.562 5.03371 10.075 5.30871C8.978 5.92433 3.505 9.16704 3.5 12.4983C3.5 12.4993 3.5 12.4993 3.5 12.5004V12.5025C3.5 15.8327 8.978 19.0754 10.075 19.692C10.227 19.7775 10.389 19.817 10.549 19.817C10.904 19.817 11.249 19.6191 11.43 19.2702C11.691 18.765 11.511 18.1316 11.024 17.8598C9.193 16.8285 6.77 15.0191 5.865 13.542H19.5C20.053 13.542 20.5 13.0764 20.5 12.5004C20.5 11.9243 20.053 11.4587 19.5 11.4587Z" fill="black"/>
</svg>
