<svg width="24" height="25" viewBox="0 0 24 25" fill="none" xmlns="http://www.w3.org/2000/svg">
<path fill-rule="evenodd" clip-rule="evenodd" d="M8.39746 13.0189C8.39746 10.7782 10.1417 8.9613 12.2927 8.9613C14.4438 8.9613 16.188 10.7782 16.188 13.0189C16.188 15.2595 14.4438 17.0764 12.2927 17.0764C10.1417 17.0764 8.39746 15.2595 8.39746 13.0189ZM12.2927 10.5238C10.9701 10.5238 9.89746 11.6411 9.89746 13.0189C9.89746 14.3966 10.9701 15.5139 12.2927 15.5139C13.6154 15.5139 14.688 14.3966 14.688 13.0189C14.688 11.6411 13.6154 10.5238 12.2927 10.5238Z" fill="black"/>
<path fill-rule="evenodd" clip-rule="evenodd" d="M14.1093 2.46698C14.6331 2.5193 15.1656 2.60547 15.5264 2.76352L15.527 2.7638C16.2631 3.08713 16.6862 3.7552 16.9501 4.25371C17.0432 4.42965 17.1334 4.61934 17.2084 4.77712C17.239 4.84151 17.267 4.90059 17.2918 4.95125C17.3955 5.16367 17.4497 5.24861 17.4738 5.27613L17.4749 5.27733C17.6192 5.44278 17.8032 5.55096 17.9766 5.60995C19.6475 6.09377 20.7332 6.94189 21.3492 8.28677C21.9321 9.55921 22.0456 11.1858 22.0456 13.09C22.0456 15.7866 21.8301 18.0949 20.3435 19.6563C18.8651 21.2092 16.3269 21.823 12.2925 21.823C8.25804 21.823 5.71982 21.2092 4.24138 19.6563C2.75481 18.0949 2.53931 15.7866 2.53931 13.09C2.53931 11.1858 2.65287 9.55921 3.2357 8.28677C3.85176 6.94178 4.93764 6.09362 6.60874 5.60982C6.78195 5.55115 6.96521 5.44335 7.11005 5.27733L7.11109 5.27613C7.13571 5.24804 7.19104 5.16135 7.29629 4.9469C7.32161 4.89532 7.35034 4.83523 7.38163 4.7698C7.45746 4.61121 7.54827 4.42131 7.64167 4.24538C7.90481 3.74975 8.32994 3.07419 9.06516 2.76066L9.06607 2.76027C9.41881 2.61041 9.94437 2.52553 10.4656 2.47265C11.0147 2.41694 11.6527 2.38872 12.2851 2.38745C12.9174 2.38618 13.5571 2.41182 14.1093 2.46698ZM9.63294 4.20689C9.40415 4.3047 9.19047 4.55673 8.95431 5.00156C8.87658 5.14796 8.81178 5.28366 8.74322 5.42723C8.70786 5.50127 8.67151 5.5774 8.63186 5.65817C8.534 5.85758 8.39794 6.12497 8.21968 6.3287C7.86447 6.73565 7.43363 6.97755 7.04807 7.10391C7.03963 7.10667 7.03115 7.10928 7.02263 7.11173C5.65254 7.50584 4.97611 8.11555 4.5895 8.95962C4.16785 9.88016 4.03931 11.1807 4.03931 13.09C4.03931 15.8342 4.30275 17.5018 5.30644 18.5561C6.31826 19.6189 8.28162 20.2605 12.2925 20.2605C16.3033 20.2605 18.2667 19.6189 19.2785 18.5561C20.2822 17.5018 20.5456 15.8342 20.5456 13.09C20.5456 11.1807 20.4171 9.88016 19.9954 8.95962C19.6088 8.11555 18.9324 7.50584 17.5623 7.11173C17.5535 7.1092 17.5448 7.10651 17.5361 7.10365C17.1529 6.9776 16.7209 6.73614 16.3653 6.32876C16.1865 6.12445 16.0515 5.85774 15.9547 5.65938C15.9156 5.57935 15.8799 5.50405 15.8451 5.4309C15.7774 5.28816 15.7135 5.15361 15.6364 5.00803C15.4051 4.57085 15.1893 4.31131 14.9445 4.20365C14.8145 4.14682 14.4868 4.07435 13.9661 4.02235C13.4735 3.97314 12.884 3.94875 12.288 3.94995C11.6921 3.95114 11.1028 3.97789 10.611 4.02779C10.0919 4.08046 9.76311 4.15173 9.63294 4.20689Z" fill="black"/>
<path fill-rule="evenodd" clip-rule="evenodd" d="M16.4543 9.375C16.4543 8.94353 16.7901 8.59375 17.2043 8.59375H17.2133C17.6276 8.59375 17.9633 8.94353 17.9633 9.375C17.9633 9.80647 17.6276 10.1562 17.2133 10.1562H17.2043C16.7901 10.1562 16.4543 9.80647 16.4543 9.375Z" fill="black"/>
</svg>
