<svg width="31" height="30" viewBox="0 0 31 30" fill="none" xmlns="http://www.w3.org/2000/svg">
<g clip-path="url(#clip0_251_592)">
<path d="M23.0005 6.00098H27.4105C28.2955 6.00098 29.0005 6.70598 29.0005 7.59098V25.306C29.0005 26.191 28.2955 27.001 27.4105 27.001H3.59049C2.70549 27.001 2.00049 26.191 2.00049 25.306V7.59098C2.00049 6.70598 2.70549 6.00098 3.59049 6.00098H8.00049L12.5005 3.00098H18.5005L23.0005 6.00098ZM15.5005 22.501C18.8155 22.501 21.5005 19.816 21.5005 16.501C21.5005 13.186 18.8155 10.501 15.5005 10.501C12.1855 10.501 9.50049 13.186 9.50049 16.501C9.50049 19.816 12.1855 22.501 15.5005 22.501Z" fill="#246AFD"/>
</g>
<defs>
<clipPath id="clip0_251_592">
<rect width="30" height="30" fill="white" transform="translate(0.5)"/>
</clipPath>
</defs>
</svg>
