<svg width="24" height="25" viewBox="0 0 24 25" fill="none" xmlns="http://www.w3.org/2000/svg">
<path fill-rule="evenodd" clip-rule="evenodd" d="M15.9506 13.975C15.3986 13.975 14.9456 13.5094 14.9456 12.9333C14.9456 12.3573 15.3886 11.8917 15.9416 11.8917H15.9506C16.5026 11.8917 16.9506 12.3573 16.9506 12.9333C16.9506 13.5094 16.5026 13.975 15.9506 13.975ZM11.9416 13.975C11.3886 13.975 10.9366 13.5094 10.9366 12.9333C10.9366 12.3573 11.3806 11.8917 11.9326 11.8917H11.9416C12.4936 11.8917 12.9416 12.3573 12.9416 12.9333C12.9416 13.5094 12.4936 13.975 11.9416 13.975ZM7.93264 13.975C7.38064 13.975 6.92864 13.5094 6.92864 12.9333C6.92864 12.3573 7.37064 11.8917 7.92364 11.8917H7.93264C8.48464 11.8917 8.93264 12.3573 8.93264 12.9333C8.93264 13.5094 8.48464 13.975 7.93264 13.975ZM19.4266 4.76665C17.4456 2.70311 14.8086 1.56561 12.0026 1.56561C9.19664 1.56561 6.55964 2.70311 4.57864 4.76665C1.47664 7.99895 0.630636 12.9594 2.45564 17.0573C2.48864 17.226 2.39964 17.9125 2.33564 18.4146C2.09364 20.2958 1.96964 21.6771 2.58264 22.3167C3.19464 22.9552 4.51964 22.826 6.32564 22.5729C6.80764 22.5062 7.47464 22.4167 7.57864 22.4281C8.98464 23.1062 10.4876 23.4344 11.9796 23.4344C14.7176 23.4344 17.4196 22.3281 19.4266 20.2364C23.5196 15.9708 23.5206 9.03124 19.4266 4.76665Z" fill="black"/>
</svg>
