<svg width="60" height="60" viewBox="0 0 60 60" fill="none" xmlns="http://www.w3.org/2000/svg">
<path d="M26.5 40.5L44.125 22.875L40.625 19.375L26.5 33.5L19.375 26.375L15.875 29.875L26.5 40.5ZM12.5 52.5C11.125 52.5 9.94833 52.0108 8.97 51.0325C7.99167 50.0542 7.50167 48.8767 7.5 47.5V12.5C7.5 11.125 7.99 9.94833 8.97 8.97C9.95 7.99167 11.1267 7.50167 12.5 7.5H47.5C48.875 7.5 50.0525 7.99 51.0325 8.97C52.0125 9.95 52.5017 11.1267 52.5 12.5V47.5C52.5 48.875 52.0108 50.0525 51.0325 51.0325C50.0542 52.0125 48.8767 52.5017 47.5 52.5H12.5Z" fill="white"/>
</svg>
