<svg width="30" height="30" viewBox="0 0 30 30" fill="none" xmlns="http://www.w3.org/2000/svg">
<path fill-rule="evenodd" clip-rule="evenodd" d="M3.75 5H26.25C26.5815 5 26.8995 5.1317 27.1339 5.36612C27.3683 5.60054 27.5 5.91848 27.5 6.25V23.75C27.5 24.0815 27.3683 24.3995 27.1339 24.6339C26.8995 24.8683 26.5815 25 26.25 25H3.75C3.41848 25 3.10054 24.8683 2.86612 24.6339C2.6317 24.3995 2.5 24.0815 2.5 23.75V6.25C2.5 5.91848 2.6317 5.60054 2.86612 5.36612C3.10054 5.1317 3.41848 5 3.75 5ZM23.7887 7.3925L15.195 14.2675C15.1396 14.3117 15.0709 14.3358 15 14.3358C14.9291 14.3358 14.8604 14.3117 14.805 14.2675L6.21125 7.3925L5.03875 8.8575L13.6337 15.7325C14.0216 16.0427 14.5034 16.2116 15 16.2116C15.4966 16.2116 15.9784 16.0427 16.3663 15.7325L24.9613 8.8575L23.7887 7.3925Z" fill="#246AFD"/>
</svg>
