<svg width="16" height="12" viewBox="0 0 16 12" fill="none" xmlns="http://www.w3.org/2000/svg">
<path d="M2.18337 8.19766C1.61671 7.46166 1.33337 7.09299 1.33337 6.00033C1.33337 4.90699 1.61671 4.53966 2.18337 3.80299C3.31471 2.33366 5.21204 0.666992 8.00004 0.666992C10.788 0.666992 12.6854 2.33366 13.8167 3.80299C14.3834 4.54033 14.6667 4.90766 14.6667 6.00033C14.6667 7.09366 14.3834 7.46099 13.8167 8.19766C12.6854 9.66699 10.788 11.3337 8.00004 11.3337C5.21204 11.3337 3.31471 9.66699 2.18337 8.19766Z" stroke="black"/>
<path d="M10.0002 6C10.0002 6.53043 9.78953 7.03914 9.41446 7.41421C9.03939 7.78929 8.53068 8 8.00024 8C7.46981 8 6.9611 7.78929 6.58603 7.41421C6.21096 7.03914 6.00024 6.53043 6.00024 6C6.00024 5.46957 6.21096 4.96086 6.58603 4.58579C6.9611 4.21071 7.46981 4 8.00024 4C8.53068 4 9.03939 4.21071 9.41446 4.58579C9.78953 4.96086 10.0002 5.46957 10.0002 6Z" stroke="black"/>
</svg>
