<svg width="20" height="20" viewBox="0 0 20 20" fill="none" xmlns="http://www.w3.org/2000/svg">
<path d="M8.60845 13.8274H3.35785" stroke="#246BFD" stroke-width="1.5" stroke-linecap="round" stroke-linejoin="round"/>
<path d="M10.9504 5.75023H16.201" stroke="#246BFD" stroke-width="1.5" stroke-linecap="round" stroke-linejoin="round"/>
<path fill-rule="evenodd" clip-rule="evenodd" d="M7.27189 5.70521C7.27189 4.6255 6.39009 3.75 5.3026 3.75C4.21511 3.75 3.33331 4.6255 3.33331 5.70521C3.33331 6.78492 4.21511 7.66042 5.3026 7.66042C6.39009 7.66042 7.27189 6.78492 7.27189 5.70521Z" stroke="#246BFD" stroke-width="1.5" stroke-linecap="round" stroke-linejoin="round"/>
<path fill-rule="evenodd" clip-rule="evenodd" d="M16.6667 13.7946C16.6667 12.7149 15.7855 11.8394 14.6981 11.8394C13.6099 11.8394 12.7281 12.7149 12.7281 13.7946C12.7281 14.8743 13.6099 15.7498 14.6981 15.7498C15.7855 15.7498 16.6667 14.8743 16.6667 13.7946Z" stroke="#246BFD" stroke-width="1.5" stroke-linecap="round" stroke-linejoin="round"/>
</svg>
