<svg width="20" height="20" viewBox="0 0 20 20" fill="none" xmlns="http://www.w3.org/2000/svg">
<path d="M2.13452 0.741211L11.4651 1.7219C11.6498 1.7414 11.8253 1.81192 11.9721 1.92556C12.119 2.0392 12.2312 2.19147 12.2964 2.36532L12.8652 3.88007L18.8323 4.50724C19.0961 4.53496 19.338 4.66633 19.505 4.87244C19.6719 5.07855 19.7501 5.34253 19.7223 5.60629L18.5725 16.546C18.5448 16.8098 18.4134 17.0517 18.2073 17.2186C18.0012 17.3856 17.7372 17.4637 17.4735 17.436L11.1264 16.7689C10.9418 16.7494 10.7662 16.6789 10.6194 16.5653C10.4726 16.4516 10.3603 16.2993 10.2951 16.1255L9.72635 14.6108L2.7647 13.8791L2.13752 19.8462L0.148481 19.6371L2.13452 0.741211Z" fill="#246AFD"/>
</svg>
