<svg width="31" height="30" viewBox="0 0 31 30" fill="none" xmlns="http://www.w3.org/2000/svg">
<g clip-path="url(#clip0_251_1801)">
<path d="M24.875 8.81273H16.125L12.8375 4.83773C12.7212 4.69434 12.5745 4.5785 12.4081 4.49853C12.2417 4.41856 12.0596 4.37645 11.875 4.37523H6.125C5.30826 4.36521 4.52083 4.67923 3.93512 5.24853C3.34942 5.81784 3.01317 6.59604 3 7.41273V22.5877C3.01317 23.4044 3.34942 24.1826 3.93512 24.7519C4.52083 25.3212 5.30826 25.6353 6.125 25.6252H24.875C25.6917 25.6353 26.4792 25.3212 27.0649 24.7519C27.6506 24.1826 27.9868 23.4044 28 22.5877V11.8502C27.9868 11.0335 27.6506 10.2553 27.0649 9.68603C26.4792 9.11673 25.6917 8.80271 24.875 8.81273ZM18 18.7502H13C12.6685 18.7502 12.3505 18.6185 12.1161 18.3841C11.8817 18.1497 11.75 17.8318 11.75 17.5002C11.75 17.1687 11.8817 16.8508 12.1161 16.6163C12.3505 16.3819 12.6685 16.2502 13 16.2502H18C18.3315 16.2502 18.6495 16.3819 18.8839 16.6163C19.1183 16.8508 19.25 17.1687 19.25 17.5002C19.25 17.8318 19.1183 18.1497 18.8839 18.3841C18.6495 18.6185 18.3315 18.7502 18 18.7502Z" fill="#246AFD"/>
</g>
<defs>
<clipPath id="clip0_251_1801">
<rect width="30" height="30" fill="white" transform="translate(0.5)"/>
</clipPath>
</defs>
</svg>
