<svg width="31" height="30" viewBox="0 0 31 30" fill="none" xmlns="http://www.w3.org/2000/svg">
<g clip-path="url(#clip0_251_1823)">
<path d="M23 3.75H8C7.00544 3.75 6.05161 4.14509 5.34835 4.84835C4.64509 5.55161 4.25 6.50544 4.25 7.5V22.5C4.25 23.4946 4.64509 24.4484 5.34835 25.1517C6.05161 25.8549 7.00544 26.25 8 26.25H23C23.9946 26.25 24.9484 25.8549 25.6517 25.1517C26.3549 24.4484 26.75 23.4946 26.75 22.5V7.5C26.75 6.50544 26.3549 5.55161 25.6517 4.84835C24.9484 4.14509 23.9946 3.75 23 3.75ZM10.5 8.75C10.8708 8.75 11.2334 8.85997 11.5417 9.06599C11.85 9.27202 12.0904 9.56486 12.2323 9.90747C12.3742 10.2501 12.4113 10.6271 12.339 10.9908C12.2666 11.3545 12.088 11.6886 11.8258 11.9508C11.5636 12.213 11.2295 12.3916 10.8658 12.464C10.5021 12.5363 10.1251 12.4992 9.78247 12.3573C9.43986 12.2154 9.14702 11.975 8.94099 11.6667C8.73497 11.3584 8.625 10.9958 8.625 10.625C8.625 10.1277 8.82254 9.65081 9.17417 9.29917C9.52581 8.94754 10.0027 8.75 10.5 8.75ZM24.25 22.2875C24.2776 22.6471 24.1615 23.0029 23.9272 23.2771C23.6929 23.5512 23.3595 23.7213 23 23.75H8L17.4625 15.225C17.6214 15.0801 17.8287 14.9997 18.0437 14.9997C18.2588 14.9997 18.4661 15.0801 18.625 15.225L24.25 20.825V22.2875Z" fill="#246AFD"/>
</g>
<defs>
<clipPath id="clip0_251_1823">
<rect width="30" height="30" fill="white" transform="translate(0.5)"/>
</clipPath>
</defs>
</svg>
