<svg width="26" height="25" viewBox="0 0 26 25" fill="none" xmlns="http://www.w3.org/2000/svg">
<path fill-rule="evenodd" clip-rule="evenodd" d="M19.4749 12.8213C18.3349 12.8213 17.2649 13.0609 16.3649 13.4671C19.5149 14.415 21.7449 16.6859 21.8049 19.3421C23.4449 19.1234 25.2149 18.4775 25.2149 16.7171C25.2149 14.6025 22.5849 12.8213 19.4749 12.8213Z" fill="black"/>
<path fill-rule="evenodd" clip-rule="evenodd" d="M19.4449 11.3213H19.4649C21.5949 11.3213 23.3349 9.50881 23.3349 7.30048C23.3349 5.08173 21.5949 3.26923 19.4649 3.26923C19.0449 3.26923 18.6449 3.34215 18.2649 3.46715C18.9549 4.52965 19.3549 5.8109 19.3549 7.19631C19.3649 8.60256 18.9449 9.95673 18.1549 11.0817C18.5649 11.238 18.9949 11.3213 19.4449 11.3213Z" fill="black"/>
<path fill-rule="evenodd" clip-rule="evenodd" d="M9.62491 13.4567C8.72491 13.0609 7.65491 12.8213 6.52491 12.8213C3.41491 12.8213 0.784912 14.6025 0.784912 16.7171C0.784912 18.4775 2.54491 19.113 4.18491 19.3421C4.23491 16.6859 6.46491 14.415 9.62491 13.4567Z" fill="black"/>
<path fill-rule="evenodd" clip-rule="evenodd" d="M6.52492 11.3213H6.55492C7.00492 11.3213 7.43492 11.238 7.84492 11.0817C7.08492 9.9984 6.63492 8.65464 6.63492 7.19631C6.63492 5.8109 7.03492 4.52965 7.72492 3.46715C7.34492 3.34215 6.94492 3.26923 6.52492 3.26923C4.39492 3.26923 2.66492 5.08173 2.66492 7.30048C2.66492 9.50881 4.39492 11.3213 6.52492 11.3213Z" fill="black"/>
<path fill-rule="evenodd" clip-rule="evenodd" d="M12.9945 14.5265C9.03352 14.5265 5.68652 16.7724 5.68652 19.4307C5.68652 22.8682 11.1865 22.8682 12.9945 22.8682C16.1325 22.8682 20.3045 22.514 20.3045 19.4526C20.3045 16.7817 16.9565 14.5265 12.9945 14.5265Z" fill="black"/>
<path fill-rule="evenodd" clip-rule="evenodd" d="M12.9955 12.2651H13.0285C14.3235 12.261 15.5395 11.7308 16.4515 10.7735C17.3645 9.81619 17.8645 8.5464 17.8595 7.19952C17.8595 4.40473 15.6785 2.13181 12.9955 2.13181C10.3135 2.13181 8.13251 4.40473 8.13251 7.19952C8.13251 9.99223 10.3135 12.2651 12.9955 12.2651Z" fill="black"/>
</svg>
