<svg width="24" height="25" viewBox="0 0 24 25" fill="none" xmlns="http://www.w3.org/2000/svg">
<path fill-rule="evenodd" clip-rule="evenodd" d="M11.9729 12.6458H11.9989C14.5359 12.6458 16.5999 10.4969 16.5999 7.85519C16.5999 5.21248 14.5359 3.06352 11.9989 3.06352C9.46294 3.06352 7.39894 5.21248 7.39894 7.85311C7.39294 10.4875 9.44294 12.6375 11.9729 12.6458ZM8.89894 7.85519C8.89894 6.07498 10.2899 4.62602 11.9989 4.62602C13.7089 4.62602 15.0999 6.07498 15.0999 7.85519C15.0999 9.6354 13.7089 11.0833 11.9989 11.0833H11.9749C10.2739 11.0771 8.89494 9.63019 8.89894 7.85519Z" fill="black"/>
<path fill-rule="evenodd" clip-rule="evenodd" d="M5.24316 18.6011C5.24316 21.9365 10.3282 21.9365 11.9992 21.9365C13.6702 21.9365 18.7552 21.9365 18.7552 18.5834C18.7552 16.0553 15.7252 13.997 11.9992 13.997C8.27316 13.997 5.24316 16.0615 5.24316 18.6011ZM6.74316 18.6011C6.74316 17.1657 8.99116 15.5595 11.9992 15.5595C15.0072 15.5595 17.2552 17.1563 17.2552 18.5834C17.2552 20.0636 14.3962 20.374 11.9992 20.374C9.60216 20.374 6.74316 20.0667 6.74316 18.6011Z" fill="black"/>
<path d="M18.3897 11.5443C18.0577 11.5443 17.7547 11.3141 17.6647 10.9652C17.5577 10.5485 17.7957 10.1204 18.1957 10.0079C19.1327 9.74642 19.7877 8.85684 19.7877 7.84434C19.7877 6.78496 19.0677 5.86204 18.0737 5.65163C17.6677 5.56517 17.4067 5.15163 17.4887 4.72871C17.5727 4.30684 17.9667 4.04017 18.3737 4.11934C20.0627 4.47871 21.2877 6.04538 21.2877 7.84434C21.2877 9.56309 20.1757 11.0735 18.5837 11.5183C18.5187 11.536 18.4527 11.5443 18.3897 11.5443Z" fill="black"/>
<path d="M20.1912 18.1241C20.2732 18.4845 20.5802 18.7262 20.9202 18.7262C20.9782 18.7262 21.0352 18.7189 21.0932 18.7054C22.1642 18.4429 22.9732 17.4481 22.9732 16.3929C22.9732 14.7564 21.0662 13.2668 18.9712 13.2668C18.5572 13.2668 18.2212 13.6168 18.2212 14.0481C18.2212 14.4793 18.5572 14.8293 18.9712 14.8293C20.4412 14.8293 21.4732 15.8429 21.4732 16.3929C21.4732 16.6502 21.2222 17.0689 20.7492 17.1845C20.3462 17.2835 20.0962 17.7043 20.1912 18.1241Z" fill="black"/>
<path d="M5.61143 11.5443C5.54843 11.5443 5.48243 11.536 5.41843 11.5183C3.82443 11.0745 2.71143 9.56413 2.71143 7.84434C2.71143 6.04538 3.93743 4.47871 5.62643 4.11934C6.03343 4.04017 6.42843 4.30684 6.51143 4.72871C6.59343 5.15163 6.33243 5.56517 5.92643 5.65163C4.93243 5.86204 4.21143 6.78496 4.21143 7.84434C4.21143 8.85684 4.86643 9.74642 5.80443 10.0079C6.20543 10.1204 6.44243 10.5485 6.33643 10.9641C6.24643 11.3141 5.94343 11.5443 5.61143 11.5443Z" fill="black"/>
<path d="M2.90686 18.7054C2.96486 18.7199 3.02186 18.7262 3.07986 18.7262C3.41986 18.7262 3.72686 18.4845 3.80886 18.1241C3.90386 17.7043 3.65386 17.2824 3.25086 17.1845C2.77786 17.0689 2.52686 16.6502 2.52686 16.3929C2.52686 15.8429 3.55886 14.8293 5.02886 14.8293C5.44286 14.8293 5.77886 14.4793 5.77886 14.0481C5.77886 13.6168 5.44286 13.2668 5.02886 13.2668C2.93386 13.2668 1.02686 14.7564 1.02686 16.3929C1.02686 17.4481 1.83586 18.4439 2.90686 18.7054Z" fill="black"/>
</svg>
