<svg width="24" height="25" viewBox="0 0 24 25" fill="none" xmlns="http://www.w3.org/2000/svg">
<path fill-rule="evenodd" clip-rule="evenodd" d="M8.3287 16.8077C8.3287 16.3762 8.66449 16.0265 9.0787 16.0265H14.8937C15.3079 16.0265 15.6437 16.3762 15.6437 16.8077C15.6437 17.2392 15.3079 17.589 14.8937 17.589H9.0787C8.66449 17.589 8.3287 17.2392 8.3287 16.8077Z" fill="black"/>
<path fill-rule="evenodd" clip-rule="evenodd" d="M6.80985 6.22672C6.39731 6.62478 6.02689 6.9669 5.69762 7.26922C5.65114 7.31189 5.60563 7.35363 5.56104 7.39453C5.28213 7.65037 5.03924 7.87316 4.82107 8.08295C4.31576 8.56883 3.99657 8.9357 3.77084 9.346C3.31834 10.1685 3.14999 11.3218 3.14999 14.2844C3.14999 16.4261 3.27306 17.9637 3.55115 19.0784C3.82415 20.1728 4.23111 20.7999 4.77021 21.203C5.33325 21.6239 6.13704 21.8747 7.34744 22.0047C8.55665 22.1345 10.065 22.1354 11.986 22.1354C13.907 22.1354 15.4153 22.1345 16.6245 22.0047C17.835 21.8747 18.6387 21.6239 19.2018 21.203C19.7409 20.7999 20.1478 20.1728 20.4208 19.0784C20.6989 17.9637 20.822 16.4261 20.822 14.2844C20.822 11.3218 20.6539 10.1684 20.2016 9.34587C19.976 8.93561 19.6569 8.56876 19.1517 8.0829C18.9334 7.87293 18.6903 7.64991 18.4111 7.39377C18.3667 7.3531 18.3215 7.31161 18.2753 7.2692C17.9461 6.96688 17.5757 6.62475 17.1631 6.22669C16.9189 6.02126 16.6659 5.79899 16.4037 5.56863C15.8326 5.06681 15.2177 4.5266 14.5544 4.03849C13.5695 3.31373 12.6775 2.86459 11.958 2.86459C11.2409 2.86459 10.361 3.31377 9.38912 4.03962C8.75484 4.51332 8.17461 5.02812 7.62942 5.51185C7.34775 5.76175 7.07544 6.00337 6.80985 6.22672ZM8.51512 2.76976C9.51544 2.0227 10.7321 1.30209 11.958 1.30209C13.1805 1.30209 14.407 2.01701 15.4199 2.7623C16.1358 3.28916 16.8441 3.91093 17.437 4.43142C17.6899 4.65343 17.9218 4.85702 18.1244 5.02696C18.138 5.03835 18.1512 5.05023 18.164 5.06259C18.57 5.45482 18.9354 5.7924 19.2672 6.09706C19.3122 6.13838 19.3567 6.17922 19.4007 6.21962C19.6786 6.47451 19.9368 6.71136 20.1692 6.93488C20.7085 7.45351 21.1624 7.94956 21.5032 8.56924C22.1836 9.80661 22.322 11.3814 22.322 14.2844C22.322 16.4588 22.2002 18.1583 21.8726 19.4714C21.54 20.8049 20.9805 21.7964 20.0765 22.4723C19.1964 23.1304 18.0803 23.4191 16.7783 23.5589C15.4837 23.6979 13.8994 23.6979 12.0231 23.6979H11.9488C10.0726 23.6979 8.4883 23.6979 7.19364 23.5589C5.89164 23.4191 4.77561 23.1304 3.89552 22.4723C2.9915 21.7964 2.43203 20.8049 2.09937 19.4714C1.77181 18.1583 1.64999 16.4588 1.64999 14.2844C1.64999 11.3813 1.78865 9.8065 2.4694 8.56911C2.8103 7.94946 3.26429 7.45344 3.80364 6.93483C4.03582 6.71157 4.29375 6.475 4.5713 6.22043C4.61564 6.17977 4.66048 6.13864 4.70579 6.09704C5.03761 5.79239 5.40299 5.45481 5.80901 5.06259C5.82183 5.05019 5.83507 5.03827 5.8487 5.02685C6.06082 4.84898 6.30838 4.62973 6.57992 4.38924C7.15391 3.8809 7.83504 3.27766 8.51512 2.76976Z" fill="black"/>
</svg>
