<svg width="24" height="25" viewBox="0 0 24 25" fill="none" xmlns="http://www.w3.org/2000/svg">
<path fill-rule="evenodd" clip-rule="evenodd" d="M14.9081 17.5885H9.09306C8.67906 17.5885 8.34306 17.2385 8.34306 16.8073C8.34306 16.376 8.67906 16.026 9.09306 16.026H14.9081C15.3221 16.026 15.6581 16.376 15.6581 16.8073C15.6581 17.2385 15.3221 17.5885 14.9081 17.5885ZM19.2491 6.41458C18.8861 6.08125 18.4731 5.70417 17.9811 5.23021C17.7581 5.04271 17.5141 4.82812 17.2551 4.60104C15.7951 3.31875 13.7951 1.5625 11.9721 1.5625C10.1701 1.5625 8.29906 3.22083 6.79606 4.55312C6.51806 4.79896 6.25806 5.03021 5.99306 5.25417C5.52706 5.70417 5.11406 6.08229 4.75006 6.41667C2.36306 8.60521 1.91406 9.17917 1.91406 14.2844C1.91406 23.4375 4.45506 23.4375 12.0001 23.4375C19.5441 23.4375 22.0861 23.4375 22.0861 14.2844C22.0861 9.17813 21.6371 8.60417 19.2491 6.41458Z" fill="black"/>
</svg>
