<svg width="24" height="24" viewBox="0 0 24 24" fill="none" xmlns="http://www.w3.org/2000/svg">
<rect width="24" height="24" fill="#F5F5F5"/>
<path d="M19 1.5H5C4.07174 1.5 3.1815 1.86875 2.52513 2.52513C1.86875 3.1815 1.5 4.07174 1.5 5V19C1.5 19.9283 1.86875 20.8185 2.52513 21.4749C3.1815 22.1313 4.07174 22.5 5 22.5H19C19.9283 22.5 20.8185 22.1313 21.4749 21.4749C22.1313 20.8185 22.5 19.9283 22.5 19V5C22.5 4.07174 22.1313 3.1815 21.4749 2.52513C20.8185 1.86875 19.9283 1.5 19 1.5ZM7.33333 6.16667C7.67945 6.16667 8.01779 6.2693 8.30558 6.46159C8.59337 6.65389 8.81767 6.9272 8.95012 7.24697C9.08258 7.56674 9.11723 7.91861 9.04971 8.25808C8.98218 8.59754 8.81551 8.90936 8.57077 9.1541C8.32603 9.39885 8.01421 9.56552 7.67474 9.63304C7.33527 9.70057 6.98341 9.66591 6.66364 9.53346C6.34387 9.401 6.07055 9.1767 5.87826 8.88891C5.68597 8.60113 5.58333 8.26278 5.58333 7.91667C5.58333 7.45254 5.76771 7.00742 6.0959 6.67923C6.42408 6.35104 6.8692 6.16667 7.33333 6.16667ZM20.1667 18.8017C20.1924 19.1373 20.0841 19.4694 19.8654 19.7253C19.6467 19.9811 19.3355 20.1399 19 20.1667H5L13.8317 12.21C13.98 12.0747 14.1734 11.9997 14.3742 11.9997C14.5749 11.9997 14.7684 12.0747 14.9167 12.21L20.1667 17.4367V18.8017Z" fill="#246AFD"/>
</svg>
