<svg width="24" height="26" viewBox="0 0 24 26" fill="none" xmlns="http://www.w3.org/2000/svg">
<path d="M0.334628 23.1909L0.323851 23.203C-0.0322859 23.5688 -0.102846 24.1274 0.1528 24.5709C0.41104 25.0187 0.937805 25.2375 1.43736 25.1042L8.06059 23.3381C9.29589 23.7672 10.6219 24 12 24C18.6274 24 24 18.6274 24 12C24 5.37258 18.6274 0 12 0C5.37261 0 2.26818e-05 5.37258 2.26818e-05 12C2.26818e-05 14.4033 0.707668 16.6443 1.92594 18.5225C1.89089 18.8858 1.83119 19.3024 1.7365 19.7759C1.47421 21.0874 1.08699 21.9759 0.786708 22.5165C0.636148 22.7874 0.506194 22.9731 0.422548 23.0825C0.380686 23.1373 0.35032 23.173 0.334628 23.1909Z" fill="#246AFD"/>
</svg>
