<svg width="24" height="25" viewBox="0 0 24 25" fill="none" xmlns="http://www.w3.org/2000/svg">
<path fill-rule="evenodd" clip-rule="evenodd" d="M12.0005 21.7453C10.7265 21.7453 9.68646 20.7349 9.54946 19.4443H14.4525C14.3155 20.7349 13.2745 21.7453 12.0005 21.7453ZM20.9045 19.4443L20.3645 18.6276C19.3465 17.0891 18.8085 15.2891 18.8085 13.4224V10.513C18.8085 6.86616 16.1525 3.85574 12.7505 3.46512V1.6922H11.2505V3.46512C7.84846 3.85574 5.19146 6.86616 5.19146 10.513V13.4224C5.19146 15.2912 4.65346 17.0912 3.63546 18.6276L3.09546 19.4443H8.04946C8.19146 21.5964 9.89946 23.3078 12.0005 23.3078C14.1015 23.3078 15.8105 21.5964 15.9525 19.4443H20.9045Z" fill="black"/>
</svg>
