<svg width="24" height="25" viewBox="0 0 24 25" fill="none" xmlns="http://www.w3.org/2000/svg">
<path fill-rule="evenodd" clip-rule="evenodd" d="M6.25917 3.36959C6.17317 3.36959 6.08617 3.37793 5.99817 3.39251C4.88017 3.58939 3.87317 4.94772 3.66517 5.30084C2.62317 6.82689 3.43717 10.3654 8.73917 15.8894C14.0432 21.4133 17.4402 22.2592 18.8512 21.2123C19.2452 20.9581 20.5472 19.9133 20.7362 18.7467C20.8182 18.2394 20.6732 17.7581 20.2942 17.2769C18.0772 14.4727 17.3752 14.8279 16.4082 15.3186C14.9522 16.0581 13.5302 16.4467 10.8672 13.6738C8.20818 10.9019 8.57917 9.42064 9.28817 7.90293C9.76017 6.89355 10.1012 6.16439 7.40617 3.85189C7.02917 3.52897 6.65117 3.36959 6.25917 3.36959ZM17.5122 23.1915C15.5302 23.1915 12.3922 21.904 7.67917 16.9936C0.641174 9.66334 1.35517 5.98939 2.40717 4.45084C2.40517 4.45084 3.72917 2.24564 5.69217 1.86334C6.62617 1.68209 7.54517 1.95189 8.35917 2.64459C11.7012 5.51334 11.3912 6.97376 10.6372 8.58626C10.1742 9.57689 9.80818 10.3592 11.9282 12.5686C14.0492 14.7758 14.8012 14.3988 15.7512 13.9133C17.3002 13.129 18.7012 12.804 21.4532 16.2842C22.1212 17.1342 22.3812 18.0977 22.2032 19.0717C21.8262 21.1467 19.6742 22.5175 19.6532 22.53C19.1882 22.8779 18.4902 23.1915 17.5122 23.1915Z" fill="black"/>
</svg>
