<svg width="24" height="25" viewBox="0 0 24 25" fill="none" xmlns="http://www.w3.org/2000/svg">
<path fill-rule="evenodd" clip-rule="evenodd" d="M11.8445 22.5645C8.15273 22.5645 5 21.9661 5 19.5694C5 17.1728 8.13273 14.9603 11.8445 14.9603C15.5364 14.9603 18.6891 17.1513 18.6891 19.548C18.6891 21.9436 15.5564 22.5645 11.8445 22.5645Z" stroke="black" stroke-width="1.5" stroke-linecap="round" stroke-linejoin="round"/>
<path fill-rule="evenodd" clip-rule="evenodd" d="M11.8373 11.6392C14.26 11.6392 16.2237 9.59375 16.2237 7.07008C16.2237 4.5464 14.26 2.5 11.8373 2.5C9.41458 2.5 7.45004 4.5464 7.45004 7.07008C7.44186 9.58523 9.39186 11.6307 11.8064 11.6392C11.8173 11.6392 11.8273 11.6392 11.8373 11.6392Z" stroke="black" stroke-width="1.5" stroke-linecap="round" stroke-linejoin="round"/>
</svg>
