<svg width="24" height="25" viewBox="0 0 24 25" fill="none" xmlns="http://www.w3.org/2000/svg">
<path fill-rule="evenodd" clip-rule="evenodd" d="M15.5949 13.2162H8.37489C7.96089 13.2162 7.62489 12.8662 7.62489 12.4349C7.62489 12.0037 7.96089 11.6537 8.37489 11.6537H15.5949C16.0089 11.6537 16.3449 12.0037 16.3449 12.4349C16.3449 12.8662 16.0089 13.2162 15.5949 13.2162ZM15.5949 17.1318H8.37489C7.96089 17.1318 7.62489 16.7818 7.62489 16.3505C7.62489 15.9193 7.96089 15.5693 8.37489 15.5693H15.5949C16.0089 15.5693 16.3449 15.9193 16.3449 16.3505C16.3449 16.7818 16.0089 17.1318 15.5949 17.1318ZM8.37489 7.73595H11.1299C11.5439 7.73595 11.8799 8.08595 11.8799 8.5172C11.8799 8.94845 11.5439 9.29845 11.1299 9.29845H8.37489C7.96089 9.29845 7.62489 8.94845 7.62489 8.5172C7.62489 8.08595 7.96089 7.73595 8.37489 7.73595ZM11.9999 2.34324C5.43489 2.34324 3.10889 5.00157 3.10889 12.5005C3.10889 19.9984 5.43489 22.6568 11.9999 22.6568C18.5639 22.6568 20.8909 19.9984 20.8909 12.5005C20.8909 5.00157 18.5639 2.34324 11.9999 2.34324Z" fill="black"/>
</svg>
