<svg width="24" height="18" viewBox="0 0 24 18" fill="none" xmlns="http://www.w3.org/2000/svg">
<path d="M20.4351 10.4773C21.959 10.4773 23.1946 9.24247 23.1946 7.71856C23.1946 6.19466 21.959 4.95898 20.4351 4.95898C18.9116 4.95898 17.6759 6.19466 17.6759 7.71856C17.676 9.24247 18.9116 10.4773 20.4351 10.4773Z" fill="#777777"/>
<path d="M23.9685 13.1362C23.8456 12.3974 23.2348 11.3633 22.7725 10.9014C22.7117 10.8401 22.4395 10.826 22.366 10.8715C21.804 11.2172 21.1438 11.4206 20.4352 11.4206C19.7274 11.4206 19.0672 11.2172 18.5051 10.8715C18.4313 10.826 18.1595 10.8401 18.0986 10.9014C17.9694 11.0306 17.8284 11.2026 17.6909 11.4021C18.0629 12.1024 18.3579 12.8463 18.4643 13.4869C18.5707 14.1291 18.5362 14.7371 18.3641 15.2913C18.9752 15.5125 19.7081 15.6095 20.4352 15.6095C22.3315 15.6095 24.2721 14.952 23.9685 13.1362Z" fill="#777777"/>
<path d="M11.9291 9.31379C14.3988 9.31379 16.4011 7.31148 16.4011 4.84182C16.4011 2.37292 14.3988 0.370605 11.9291 0.370605C9.45981 0.370605 7.45825 2.37292 7.45825 4.84182C7.45825 7.31148 9.45977 9.31379 11.9291 9.31379Z" fill="#777777"/>
<path d="M15.7156 9.99864C15.6186 9.90203 15.1779 9.87733 15.0581 9.95149C14.1465 10.5124 13.0766 10.8408 11.9289 10.8408C10.7821 10.8408 9.71176 10.5124 8.8006 9.95149C8.68084 9.87728 8.24017 9.90203 8.14314 9.99864C7.39215 10.7488 6.40239 12.4259 6.20326 13.6215C5.71229 16.5665 8.85798 17.6297 11.9289 17.6297C15.0008 17.6297 18.1464 16.5665 17.6554 13.6215C17.4563 12.4259 16.4665 10.7488 15.7156 9.99864Z" fill="#777777"/>
<path d="M3.56488 10.4773C5.08841 10.4773 6.32403 9.24247 6.32403 7.71856C6.32403 6.19466 5.08841 4.95898 3.56488 4.95898C2.04092 4.95898 0.805298 6.19466 0.805298 7.71856C0.805298 9.24247 2.04092 10.4773 3.56488 10.4773Z" fill="#777777"/>
<path d="M5.39505 13.4869C5.50821 12.8141 5.82748 12.022 6.22774 11.2894C6.11618 11.137 6.00466 11.0043 5.90173 10.9014C5.84083 10.8401 5.56905 10.826 5.49523 10.8715C4.93315 11.2172 4.27291 11.4206 3.56482 11.4206C2.85663 11.4206 2.19598 11.2172 1.63437 10.8715C1.56087 10.826 1.28833 10.8401 1.22744 10.9014C0.763991 11.3633 0.15485 12.3974 0.0314755 13.1362C-0.271712 14.952 1.66854 15.6094 3.56482 15.6094C4.24155 15.6094 4.92494 15.5261 5.50821 15.3357C5.32441 14.7701 5.28551 14.148 5.39505 13.4869Z" fill="#777777"/>
</svg>
