<svg width="24" height="25" viewBox="0 0 24 25" fill="none" xmlns="http://www.w3.org/2000/svg">
<path fill-rule="evenodd" clip-rule="evenodd" d="M16.191 14.0802H16.178L11.649 14.0042C11.239 13.9969 10.911 13.649 10.911 13.2229V8.17292C10.911 7.74167 11.247 7.39167 11.661 7.39167C12.075 7.39167 12.411 7.74167 12.411 8.17292V12.4531L16.203 12.5177C16.617 12.525 16.947 12.8802 16.941 13.3115C16.934 13.7385 16.599 14.0802 16.191 14.0802ZM12 2.34375C6.624 2.34375 2.25 6.9 2.25 12.5C2.25 18.1 6.624 22.6562 12 22.6562C17.376 22.6562 21.75 18.1 21.75 12.5C21.75 6.9 17.376 2.34375 12 2.34375Z" fill="black"/>
</svg>
