<svg width="24" height="25" viewBox="0 0 24 25" fill="none" xmlns="http://www.w3.org/2000/svg">
<path fill-rule="evenodd" clip-rule="evenodd" d="M19.398 8.7721C18.5435 9.23588 17.5071 9.95325 16.6173 10.688C16.2927 10.956 15.821 10.8992 15.5637 10.5611C15.3064 10.223 15.3609 9.73162 15.6855 9.46358C16.6338 8.68047 17.7498 7.90479 18.7048 7.38643C19.1775 7.12991 19.6454 6.91722 20.0517 6.80811C20.2531 6.75404 20.4795 6.71413 20.704 6.72812C20.9262 6.74196 21.234 6.816 21.4725 7.08397C21.611 7.2392 21.6971 7.42266 21.7533 7.56768C21.8136 7.72349 21.8623 7.89657 21.9028 8.07375C21.9839 8.4284 22.046 8.86007 22.0933 9.32849C22.1882 10.2689 22.2306 11.431 22.2264 12.5788C22.2222 13.7269 22.1712 14.8826 22.0742 15.811C22.026 16.2733 21.9646 16.6967 21.887 17.0415C21.8484 17.2135 21.8022 17.3814 21.7455 17.5319C21.694 17.6683 21.6111 17.8533 21.4718 18.0088C21.2241 18.2871 20.9016 18.3456 20.6929 18.3519C20.4747 18.3586 20.2539 18.3141 20.0577 18.2576C19.6604 18.1432 19.1971 17.929 18.7249 17.6714C17.771 17.1511 16.6476 16.38 15.6903 15.6027C15.3636 15.3374 15.3052 14.8465 15.5599 14.5062C15.8145 14.1659 16.2858 14.1051 16.6125 14.3703C17.5123 15.101 18.5603 15.8179 19.4207 16.2872C19.8308 16.5109 20.1695 16.6623 20.4141 16.7386C20.4182 16.7216 20.4224 16.7037 20.4266 16.685C20.4846 16.4272 20.538 16.0735 20.583 15.6421C20.6727 14.7829 20.7223 13.6841 20.7264 12.5728C20.7305 11.4612 20.689 10.3588 20.6015 9.49187C20.5576 9.05659 20.5038 8.69878 20.4436 8.43595C20.4342 8.39486 20.425 8.35756 20.4161 8.32388C20.1717 8.39101 19.8242 8.54074 19.398 8.7721ZM20.3321 17.0011C20.3321 17.001 20.3325 17.0003 20.3332 16.999C20.3325 17.0004 20.3322 17.0011 20.3321 17.0011Z" fill="black"/>
<path fill-rule="evenodd" clip-rule="evenodd" d="M4.55499 7.4561C3.69851 8.35113 3.2644 9.87691 3.2644 12.5385C3.2644 15.1995 3.69849 16.7254 4.55502 17.6205C5.41083 18.515 6.86928 18.9685 9.41536 18.9685C11.9609 18.9685 13.4191 18.515 14.2748 17.6206C15.1313 16.7254 15.5654 15.1995 15.5654 12.5385C15.5654 9.87691 15.1313 8.3511 14.2749 7.45607C13.4192 6.56179 11.961 6.10843 9.41536 6.10843C6.86919 6.10843 5.41077 6.56181 4.55499 7.4561ZM3.49263 6.35302C4.79328 4.99384 6.78533 4.54593 9.41536 4.54593C12.0449 4.54593 14.0368 4.99385 15.3373 6.35305C16.6371 7.71149 17.0654 9.79134 17.0654 12.5385C17.0654 15.2852 16.6371 17.365 15.3373 18.7235C14.0368 20.0828 12.045 20.531 9.41536 20.531C6.78524 20.531 4.79322 20.0829 3.4926 18.7236C2.1927 17.365 1.7644 15.2852 1.7644 12.5385C1.7644 9.79134 2.19268 7.71147 3.49263 6.35302Z" fill="black"/>
</svg>
