<svg width="24" height="25" viewBox="0 0 24 25" fill="none" xmlns="http://www.w3.org/2000/svg">
<path d="M11.9611 17.205V14.4675" stroke="black" stroke-width="1.5" stroke-linecap="round" stroke-linejoin="round"/>
<path d="M21.0895 11.9559L21.0605 11.9778C18.6385 13.532 15.4405 14.4705 11.9565 14.4705C8.47252 14.4705 5.28352 13.532 2.86252 11.9778L2.83252 11.9559" stroke="black" stroke-width="1.5" stroke-linecap="round" stroke-linejoin="round"/>
<path fill-rule="evenodd" clip-rule="evenodd" d="M2.75021 13.907C2.75021 7.49866 5.05321 5.3622 11.9612 5.3622C18.8702 5.3622 21.1722 7.49866 21.1722 13.907C21.1722 20.3153 18.8702 22.4518 11.9612 22.4518C5.05321 22.4518 2.75021 20.3153 2.75021 13.907Z" stroke="black" stroke-width="1.5" stroke-linecap="round" stroke-linejoin="round"/>
<path d="M15.2238 5.59302V4.93677C15.2238 3.62011 14.3008 2.5524 13.1638 2.5524H10.7588C9.62182 2.5524 8.69882 3.62011 8.69882 4.93677V5.59302" stroke="black" stroke-width="1.5" stroke-linecap="round" stroke-linejoin="round"/>
</svg>
